<?xml version="1.0" encoding="UTF-8" standalone="no"?>
<!-- Created with Inkscape (http://www.inkscape.org/) -->

<svg
   version="1.1"
   id="svg1"
   width="1536"
   height="1024"
   viewBox="0 0 1536 1024"
   xmlns="http://www.w3.org/2000/svg"
   xmlns:svg="http://www.w3.org/2000/svg">
  <defs
     id="defs1" />
  <g
     id="g1">
    <path
       style="fill:#2e92f1;stroke:none"
       d="m 650.80405,421.5 c 0.74997,34.63102 -0.23809,69.26629 -0.13948,103.8996 -5.83297,12.60744 -2.69318,28.90888 9.33647,36.70408 12.80199,9.4189 29.03177,11.52531 42.88799,18.93422 34.20751,15.05656 68.91516,29.25556 103.3566,43.55545 -4.04447,9.2495 -16.59485,13.79487 -23.43325,21.81852 -3.32057,2.94241 -17.55354,13.67213 -6.0166,7.01987 32.06471,-16.45803 62.20394,-36.29667 93.00827,-54.93174 -20.45094,-14.71949 -45.43187,-20.77069 -67.78574,-31.88184 -31.98865,-13.64099 -64.49893,-26.1631 -95.61075,-41.76855 -6.14104,-21.97289 5.09033,-45.27977 -3.30199,-66.9201 -15.79458,-11.90883 -31.2155,-24.5887 -47.63349,-35.50415 -1.47999,-0.70972 -3.06577,-0.75448 -4.66803,-0.92536 z"
       id="ms-border" />
    <path
       style="fill:#2e92f1;stroke:none"
       d="m 985.80407,350.5 c -31.20321,17.29113 -56.14742,43.48425 -85.9364,62.89215 -36.81354,27.60467 -74.00118,54.70548 -110.88266,82.21881 -17.94686,13.99563 -2.20915,35.23132 14.58231,40.33088 30.42647,13.38223 59.87477,28.79882 90.02059,42.82007 12.64907,7.27365 42.20115,17.1458 26.60688,35.84405 -13.41566,12.60271 -32.35541,17.1147 -45.813,29.68751 -33.42939,23.08712 -69.11356,43.00076 -102.15761,66.49125 -9.40912,13.0103 -2.45916,29.80924 -4.42012,44.57 0,11.04842 0,22.09685 0,33.14528 72.53561,-50.26342 144.8704,-100.82595 216.39652,-152.51953 0.8552,-20.66704 5.6003,-46.37711 -2.27522,-64.08277 -40.34118,-23.96525 -84.45357,-40.89171 -125.81985,-62.69655 10.24242,-13.32006 32.34495,-24.95803 47.13127,-37.63365 11.63143,-7.29014 29.38305,-24.74978 37.19883,-25.69971 -3.805,21.0001 -1.87512,48.6863 20.09305,59.03438 7.55695,4.85465 27.97622,23.01947 25.88262,2.2196 -1.38251,-23.95478 -0.2277,-48.12336 -0.60721,-72.16266 0,-28.15304 0,-56.30607 0,-84.45911 z"
       id="ms-s" />
    <path
       style="fill:#2e92f1;stroke:none"
       d="m 985.80407,235.5 c -72.66894,55.0879 -145.12387,110.54129 -218.23212,164.99589 -22.28224,2.0307 -37.41669,-25.45881 -56.65174,-35.3417 -53.43907,-41.53951 -105.82446,-84.4826 -159.54589,-125.62175 -3.92965,26.05389 -0.33455,56.76062 -1.5872,84.48082 0.009,94.94534 0.12541,189.89085 -0.10438,284.83603 -9.48864,24.69378 15.75672,41.69893 34.52043,51.59442 50.6466,34.25186 99.94042,70.83141 150.94556,104.59573 3.56205,-16.77997 5.67349,-42.70429 -1.16934,-60.93867 -35.06845,-24.82584 -71.96192,-47.6806 -107.22406,-72.50725 -25.48823,-8.23873 -30.22144,-31.38402 -25.66425,-54.85649 -0.39086,-76.0631 -0.99404,-152.15994 -1.28703,-228.23703 29.40119,17.48065 53.85377,41.94686 82.30962,60.89743 26.06684,19.4215 52.14223,38.83154 78.23657,58.21608 26.41863,-4.68431 41.25709,-30.75947 63.99743,-42.92698 52.9185,-40.70849 106.01368,-81.18673 158.92485,-121.90475 6.01005,-21.78602 6.53606,-45.09285 2.53155,-67.28178 z"
       id="ms-m" />
  </g>
</svg>
